<svg xmlns="http://www.w3.org/2000/svg" viewBox="0 0 97.59 73.75"><defs><style>.cls-1{fill:#fff;}.cls-1,.cls-2{stroke:#86c440;stroke-linecap:round;stroke-miterlimit:10;stroke-width:3px;}.cls-2{fill:none;}</style></defs><title>Asset 2</title><g id="Layer_2" data-name="Layer 2"><g id="Layer_1-2" data-name="Layer 1"><path class="cls-1" d="M1.5,55.13l12.24-9.77A11.58,11.58,0,0,1,22.8,43l15,2.45a5,5,0,0,1,2.7,8.4h0a5,5,0,0,1-4.07,1.42l-11.8-1.37"/><path class="cls-2" d="M17.38,72.25h0a11.75,11.75,0,0,1,8.47-2.71L55,71.88a14.45,14.45,0,0,0,8.74-2.12l30.1-18.65a4.7,4.7,0,0,0-2.06-8.68h0a4.69,4.69,0,0,0-2.81.63L66.22,56.28a16.74,16.74,0,0,1-10.73,2.1L48,57.33"/><path class="cls-2" d="M49.63,24.24a2.92,2.92,0,0,0,1.18,2.34h0a2.88,2.88,0,0,0,3.4,0l.06,0a2.92,2.92,0,0,0,1.23-2.37h0A2.92,2.92,0,0,0,54,21.66L51.18,20.1a2.92,2.92,0,0,1-1.5-2.54v-.24a2.91,2.91,0,0,1,.93-2.13l0,0a2.9,2.9,0,0,1,3.9,0l.06.06a2.9,2.9,0,0,1,1,2.17"/><line class="cls-2" x1="52.6" y1="27.16" x2="52.6" y2="29.28"/><line class="cls-2" x1="52.6" y1="11.94" x2="52.6" y2="13.4"/><circle class="cls-2" cx="52.6" cy="20.88" r="19.38"/></g></g></svg>