<svg xmlns="http://www.w3.org/2000/svg" viewBox="0 0 137.92 70.52"><defs><style>.cls-1{fill:#fff;stroke:#86c440;stroke-linecap:round;stroke-miterlimit:10;stroke-width:3px;}</style></defs><title>Asset 7</title><g id="Layer_2" data-name="Layer 2"><g id="Layer_1-2" data-name="Layer 1"><rect class="cls-1" x="1.5" y="12.96" width="126.16" height="52.74" rx="8.17" ry="8.17"/><ellipse class="cls-1" cx="63" cy="39.33" rx="11.67" ry="14.67"/><rect class="cls-1" x="5.64" y="8.52" width="126.16" height="52.74" rx="8.17" ry="8.17"/><ellipse class="cls-1" cx="67.14" cy="34.89" rx="11.67" ry="14.67"/><path class="cls-1" d="M123,4.38h5.25a8.17,8.17,0,0,1,8.17,8.17V49a8.17,8.17,0,0,1-8.17,8.17H18.42A8.17,8.17,0,0,1,10.25,49V12.55a8.17,8.17,0,0,1,8.17-8.17H106"/><circle class="cls-1" cx="74.66" cy="30.75" r="17.59"/><path class="cls-1" d="M61.63,5.4a3.9,3.9,0,0,1,3.89-3.9H86a3.91,3.91,0,0,1,3.9,3.9v53L82.1,67.74A3.51,3.51,0,0,1,79.39,69h-24a1.57,1.57,0,0,1-1.15-2.64l7.4-8Z"/><line class="cls-1" x1="89.88" y1="58.38" x2="69.16" y2="58.38"/><path class="cls-1" d="M10.25,16.08h4.06a8.6,8.6,0,0,0,8.61-8.6V4.38"/><path class="cls-1" d="M136.42,45.42h-4.06a8.6,8.6,0,0,0-8.61,8.6v3.1"/></g></g></svg>