<svg xmlns="http://www.w3.org/2000/svg" viewBox="0 0 92.43 19.98"><defs><style>.cls-1{fill:#fff;}</style></defs><title>Asset 2</title><g id="Layer_2" data-name="Layer 2"><g id="Layer_1-2" data-name="Layer 1"><path class="cls-1" d="M-543.84-2699.58a1.33,1.33,0,0,0-.67-.36,1.59,1.59,0,0,0-1,.07,1,1,0,0,0-.55.52l-5.72,15-5.68-15,0,0a1.1,1.1,0,0,0-.54-.47,1.42,1.42,0,0,0-.63-.14h-.12l-.22,0a1.44,1.44,0,0,0-.82.39.58.58,0,0,0-.16.4.57.57,0,0,0,0,.22l6.92,18.26a1.2,1.2,0,0,0,1.22.64,1.25,1.25,0,0,0,1.26-.63l6.84-18.25a.44.44,0,0,0,.07-.24A.56.56,0,0,0-543.84-2699.58Z" transform="translate(560 2700)"/><path class="cls-1" d="M-520.65-2680.46a1.31,1.31,0,0,0,.67.35,1.47,1.47,0,0,0,1-.07,1,1,0,0,0,.56-.52l5.71-15,5.68,15,0,0a1.1,1.1,0,0,0,.54.47,1.44,1.44,0,0,0,.64.14h.11l.22,0a1.5,1.5,0,0,0,.82-.38.6.6,0,0,0,.16-.4.51.51,0,0,0,0-.22l-6.92-18.27a1.2,1.2,0,0,0-1.22-.64c-.64,0-1.11.24-1.25.64l-6.85,18.25a.43.43,0,0,0-.07.23A.59.59,0,0,0-520.65-2680.46Z" transform="translate(560 2700)"/><path class="cls-1" d="M-526.72-2689.91l-.13-.07a5.14,5.14,0,0,0,.94-.58,4.88,4.88,0,0,0,1.65-4,4.89,4.89,0,0,0-1.64-4,8.61,8.61,0,0,0-5.35-1.39h-3.81c-.77,0-1.25.32-1.25.84v18.28a.67.67,0,0,0,.36.56,1.55,1.55,0,0,0,.89.24h4.1a8.57,8.57,0,0,0,5.34-1.39,4.89,4.89,0,0,0,1.65-4,5,5,0,0,0-1.94-4A5,5,0,0,0-526.72-2689.91Zm-.08-4.65a2.78,2.78,0,0,1-1.08,2.55,4.33,4.33,0,0,1-3.07.82h-2.82v-6.63h2.52a5.46,5.46,0,0,1,3.41.81A2.62,2.62,0,0,1-526.8-2694.56Zm-4.16,5.83a5.28,5.28,0,0,1,3.36.83,2.75,2.75,0,0,1,1.09,2.5,2.72,2.72,0,0,1-1,2.5,5.52,5.52,0,0,1-3.42.81h-2.81v-6.64Z" transform="translate(560 2700)"/><path class="cls-1" d="M-488.56-2699.94a1.71,1.71,0,0,0-.91.23.68.68,0,0,0-.36.57v14l-8.69-14.29a1.33,1.33,0,0,0-1.17-.53l-.24,0c-.65.06-1.05.36-1.05.8v18.28c0,.52.49.84,1.27.84s1.27-.32,1.27-.84v-14l8.72,14.29a1.22,1.22,0,0,0,1.17.53h.26c.62-.09,1-.4,1-.83v-18.28a.71.71,0,0,0-.36-.57A1.71,1.71,0,0,0-488.56-2699.94Z" transform="translate(560 2700)"/><path class="cls-1" d="M-475.76-2690.73l7.95-7.92a.62.62,0,0,0,.24-.47.8.8,0,0,0-.51-.69l-.05,0a1.7,1.7,0,0,0-.94-.1,1.32,1.32,0,0,0-.79.35l-9.78,9.64v-9.2a.69.69,0,0,0-.39-.58,1.86,1.86,0,0,0-1.76,0,.72.72,0,0,0-.39.58v18.28c0,.52.5.84,1.29.84a1.56,1.56,0,0,0,.87-.24.72.72,0,0,0,.38-.6v-6l2.3-2.28,7.41,8.75,0,0a1.53,1.53,0,0,0,1.08.39,2.57,2.57,0,0,0,.52-.07l.08,0,.07,0a1.07,1.07,0,0,0,.51-.47.51.51,0,0,0,.07-.26.52.52,0,0,0-.16-.38Z" transform="translate(560 2700)"/><circle class="cls-1" cx="47.34" cy="14.66" r="1.48"/></g></g></svg>