<svg xmlns="http://www.w3.org/2000/svg" viewBox="0 0 138.78 30"><defs><style>.cls-1{fill:#00ae42;}.cls-2{fill:#82ce20;}</style></defs><title>Asset 1</title><g id="Layer_2" data-name="Layer 2"><g id="Layer_1-2" data-name="Layer 1"><path class="cls-1" d="M24.26.63a1.89,1.89,0,0,0-1-.54A2.25,2.25,0,0,0,21.72.2a1.47,1.47,0,0,0-.84.78L12.3,23.55,3.77,1l0-.06A1.7,1.7,0,0,0,2.93.21,2.08,2.08,0,0,0,2,0H1.8l-.33,0A2.22,2.22,0,0,0,.24.64a.92.92,0,0,0-.24.6.88.88,0,0,0,.06.33L10.46,29a1.78,1.78,0,0,0,1.82,1,1.85,1.85,0,0,0,1.89-1L24.45,1.6a.7.7,0,0,0,.1-.36A.81.81,0,0,0,24.26.63Z"/><path class="cls-2" d="M59.09,29.33a2,2,0,0,0,1,.54,2.25,2.25,0,0,0,1.54-.11,1.51,1.51,0,0,0,.84-.78L71.05,6.4,79.58,29l0,.06a1.7,1.7,0,0,0,.82.71,2.08,2.08,0,0,0,1,.21h.17l.34-.05a2.25,2.25,0,0,0,1.23-.58.92.92,0,0,0,.24-.6.88.88,0,0,0-.06-.33L72.89,1a1.79,1.79,0,0,0-1.82-1,1.85,1.85,0,0,0-1.89,1L58.9,28.36a.69.69,0,0,0-.1.35A.83.83,0,0,0,59.09,29.33Z"/><path class="cls-2" d="M50,15.15,49.77,15a7.45,7.45,0,0,0,1.41-.86,7.36,7.36,0,0,0,2.48-6,7.36,7.36,0,0,0-2.46-6c-1.78-1.4-4.48-2.1-8-2.1H37.44c-1.16,0-1.88.49-1.88,1.27V28.8a1,1,0,0,0,.54.84,2.37,2.37,0,0,0,1.34.36H43.6c3.58,0,6.28-.7,8-2.09a7.37,7.37,0,0,0,2.47-6A7.6,7.6,0,0,0,51.19,16,7.47,7.47,0,0,0,50,15.15Zm-.12-7c0,2.07-.54,3-1.62,3.83S46,13.24,43.61,13.23H39.38v-10h3.79c2.41,0,4.14.41,5.12,1.23S49.84,6.1,49.84,8.17Zm-6.23,8.75c2.36,0,4.06.42,5,1.25a4.1,4.1,0,0,1,1.64,3.74c0,2.08-.52,2.92-1.55,3.76S46,26.89,43.61,26.89H39.38v-10Z"/><path class="cls-2" d="M107.26.08a2.48,2.48,0,0,0-1.36.36,1,1,0,0,0-.55.85v21L92.3.85A2,2,0,0,0,90.56.06l-.38,0c-1,.09-1.57.54-1.57,1.2V28.74c0,.78.74,1.26,1.91,1.26s1.91-.48,1.91-1.26v-21l13.1,21.45a1.82,1.82,0,0,0,1.75.8h.38c1-.15,1.51-.61,1.51-1.25V1.29a1,1,0,0,0-.55-.85A2.48,2.48,0,0,0,107.26.08Z"/><path class="cls-2" d="M126.48,13.92,138.42,2a1,1,0,0,0,.36-.7,1.19,1.19,0,0,0-.77-1l-.08,0A2.72,2.72,0,0,0,136.52.1a2,2,0,0,0-1.19.53L120.66,15.11V1.29a1,1,0,0,0-.59-.87,2.8,2.8,0,0,0-2.64,0,1.07,1.07,0,0,0-.59.87V28.74c0,.78.75,1.26,1.94,1.26a2.38,2.38,0,0,0,1.31-.36,1.08,1.08,0,0,0,.57-.9V19.66l3.45-3.43,11.12,13.14,0,.05a2.37,2.37,0,0,0,1.64.58,3.71,3.71,0,0,0,.78-.11l.12,0,.1-.05a1.52,1.52,0,0,0,.76-.69.78.78,0,0,0,.11-.4.8.8,0,0,0-.25-.57Z"/><circle class="cls-1" cx="71.07" cy="22.01" r="2.22"/></g></g></svg>