<svg xmlns="http://www.w3.org/2000/svg" viewBox="0 0 123.51 78.7"><defs><style>.cls-1{fill:none;stroke:#86c440;stroke-linecap:round;stroke-miterlimit:10;stroke-width:3px;}.cls-2{fill:#86c440;}</style></defs><title>Asset 5</title><g id="Layer_2" data-name="Layer 2"><g id="Layer_1-2" data-name="Layer 1"><path class="cls-1" d="M25.23,14.13c-.58.41-1.15.84-1.7,1.29A31.56,31.56,0,0,0,11.92,39.89"/><path class="cls-1" d="M67.07,8.3H43.51c-.58,0-1.16,0-1.74,0"/><path class="cls-1" d="M105.85,63.78a31.52,31.52,0,0,0,10.93-23.89h0a31.67,31.67,0,0,0-.44-5.27,13,13,0,0,1,2.23-9.8l.17-.23a12.83,12.83,0,0,0,2.38-6.3L122,9.05a2.12,2.12,0,0,0-2.11-2.32h0a2.12,2.12,0,0,0-2.06,1.64l-1.7,7.32a4.86,4.86,0,0,1-3.35,3.55h0A4.83,4.83,0,0,1,108,18,31.54,31.54,0,0,0,85.19,8.3H79.25"/><path class="cls-1" d="M34.31,70.11a31.41,31.41,0,0,0,9.2,1.37H85.19a31.58,31.58,0,0,0,9.12-1.34"/><path class="cls-1" d="M10.2,31.08H5.66A4.16,4.16,0,0,0,1.5,35.24v9a4.16,4.16,0,0,0,4.16,4.16H9.88A4.42,4.42,0,0,1,14,51.22a31.55,31.55,0,0,0,8.76,12.49"/><path class="cls-1" d="M43.44,10.38,41.49,8A15.27,15.27,0,0,0,38.4,5.15l-1.24-.87A15.45,15.45,0,0,0,27,1.56h0A3.48,3.48,0,0,0,23.9,5.94h0A35.27,35.27,0,0,1,25,12.78a7.62,7.62,0,0,0,.18,1.27h0A7.38,7.38,0,0,0,27,17.4l1,1"/><circle class="cls-1" cx="22.98" cy="27.01" r="2.94"/><path class="cls-1" d="M23.78,60,21.57,74.53a2.33,2.33,0,0,0,1.14,2.36h0a2.32,2.32,0,0,0,2.58-.18l12.23-9.48"/><path class="cls-1" d="M91.72,66.49,101,75a2.34,2.34,0,0,0,2.83.31h0A2.75,2.75,0,0,0,105.08,73l.22-13.49"/><line class="cls-1" x1="52.96" y1="15.61" x2="85.62" y2="15.61"/><circle class="cls-2" cx="73.16" cy="8.3" r="1.29"/></g></g></svg>